<svg xmlns="http://www.w3.org/2000/svg" width="100" height="100" xmlns:xlink="http://www.w3.org/1999/xlink">
  <path fill="none" d="M-1-1h102v102H-1z"/>
  <g fill="#fff">
    <path d="M15.706 35.403c0-2.122-1.72-3.842-3.842-3.842s-3.842 1.72-3.842 3.85 1.72 3.84 3.842 3.84 3.842-1.72 3.842-3.84m68.4 40.87c-3.832 0-6.937 2.63-6.937 5.86 0 3.24 3.1 5.86 6.93 5.86 3.83 0 6.93-2.62 6.93-5.86 0-3.23-3.11-5.86-6.94-5.86m-.95 2.59" clip-path="url(#a)"/>
    <path d="M81.516 20.52c-1.354-.33-2.71-.48-4.04-.464h-.02c-.52.006-1.037.04-1.55.095-14.174.73-13.563-3.68-19.855-9.35-.08-.08-.18-.16-.27-.24l-.33-.28c-1.65-1.36-3.63-2.39-5.86-2.93-7.46-1.82-14.97 2.43-17.37 9.58-1.46 4.11-2.85 6.12-7.94 7.3-2.76.51-5.1 2.58-5.81 5.48-.18.76-.24 1.51-.19 2.25.04 3.5 2.33 6.64-2.91 9.82-.16.09-.32.18-.48.28l-.01.01h.01c-2.78 1.71-4.91 4.48-5.74 7.9-1.44 5.91 1.46 11.86 6.66 14.5h-.01c.04.02.07.03.1.05.11.06.22.11.34.16 4.66 2.24 9.81 3.88 8.45 12.37-.02.12-.04.24-.05.36v.03c-.47 3.62 1.85 7.08 5.47 7.96 1.24.31 2.48.27 3.63-.05h.01c.44-.12.87-.28 1.28-.48 8.23-2.99 11.06-1.08 15.14 3.74.2.26.41.5.62.74l.01.01c1.82 2.01 4.24 3.52 7.08 4.21 7.54 1.84 15.13-2.78 16.97-10.31.05-.18.08-.36.12-.53l.01.01.03-.18c.08-.42.14-.84.18-1.26.9-6.11 1.87-8.49 8.62-6.85l-.02-.03c3.68.58 7.26-1.75 8.16-5.44.55-2.24-.02-4.5-1.34-6.19-.11-.14-.22-.27-.34-.4-2.71-3.31-6.36-9.68-1.09-14.56h-.01c2.06-2.04 3.6-4.65 4.34-7.67 2.12-8.7-3.21-17.47-11.91-19.59m8.7 13.82" clip-path="url(#a)"/>
  </g>
  <g fill="#1fc8db">
    <defs stroke="#fff" stroke-width="0" transform="translate(.425 .18)">
      <path id="b" d="M0 0h100v100H0z"/>
    </defs>
    <clipPath id="a" stroke="#fff" stroke-width="0" transform="translate(.425 .18)">
      <use x="-2.347" y="2.698" xlink:href="#b"/>
    </clipPath>
    <path d="M14.468 35.423c0-1.377-1.116-2.493-2.493-2.493s-2.493 1.116-2.493 2.493 1.116 2.493 2.493 2.493 2.493-1.116 2.493-2.493m-2.602-1.218l-.064.024c-.1.03-.224.09-.34.15-.115.06-.216.14-.31.19-.09.05-.174.08-.174.08l-.036.01c-.162.05-.334-.04-.386-.2-.015-.05-.018-.1-.01-.14 0 0 .02-.12.117-.25.046-.07.114-.14.195-.2.082-.06.177-.12.276-.16.1-.05.204-.08.303-.1.1-.02.194-.03.274-.03h.12c.04 0 .07 0 .08.01l.06.01c.16.03.25.19.21.34-.02.1-.1.17-.19.2l-.06.02c-.02 0-.04.01-.05.02m72.46 43.38c-2.99 0-5.42 2.05-5.42 4.58 0 2.53 2.43 4.58 5.42 4.58 3 0 5.43-2.05 5.43-4.58 0-2.53-2.42-4.58-5.42-4.58m-.54 1.98l-.2.04-.11.02-.1.03c-.07.02-.15.04-.24.08l-.14.05c-.05.02-.1.04-.15.07-.05.02-.1.04-.15.08l-.16.09c-.1.07-.2.14-.29.22-.1.07-.18.17-.28.25-.07.1-.17.19-.23.29-.08.09-.13.2-.2.3-.05.11-.11.2-.15.3-.02.05-.05.09-.07.14-.02.04-.04.09-.06.14-.04.08-.07.17-.09.24l-.04.11-.02.09c-.04.11-.07.18-.07.18l-.01.04c-.07.16-.25.23-.41.16-.09-.04-.16-.12-.18-.21 0 0-.02-.08-.05-.23-.01-.08-.02-.17-.02-.27 0-.11 0-.23.03-.36l.04-.2.06-.21c.04-.15.12-.29.19-.43.09-.14.17-.29.28-.42.1-.14.22-.26.34-.39.14-.11.26-.23.41-.32.13-.11.29-.18.43-.25.15-.07.29-.13.43-.17l.208-.06.19-.04c.12-.02.25-.03.353-.04l.15-.01.11.01.21.02c.17.01.29.17.28.34-.017.14-.12.25-.25.27m1.16.01c-.04 0-.08-.01-.117-.03l-.02-.01c-.16-.06-.24-.24-.18-.4.06-.16.24-.24.4-.18l.03.01c.16.06.24.24.17.4-.04.12-.16.19-.28.19M79.86 22.2c-1.26-.31-2.52-.45-3.765-.436h-.02c-.48.01-.96.04-1.44.09-13.23.68-12.66-3.44-18.53-8.726l-.25-.22c-.1-.09-.203-.17-.31-.26-1.542-1.27-3.39-2.22-5.463-2.73-6.96-1.69-13.972 2.27-16.21 8.94l-.003.004c-1.36 3.83-2.66 5.7-7.4 6.81-2.57.47-4.76 2.4-5.42 5.11-.17.7-.23 1.403-.18 2.09.03 3.26 2.17 6.19-2.71 9.16-.15.082-.3.17-.45.26l-.01.01c-2.6 1.595-4.58 4.174-5.36 7.37-1.35 5.51 1.36 11.062 6.21 13.53h-.01l.09.042.31.15c4.34 2.086 9.15 3.616 7.88 11.54-.03.11-.04.223-.06.335v.02c-.44 3.37 1.72 6.61 5.1 7.43 1.15.28 2.31.25 3.38-.04.41-.12.81-.27 1.18-.45 7.68-2.79 10.32-1.01 14.125 3.49.19.23.38.47.58.69l.01.01c1.7 1.87 3.96 3.28 6.6 3.92 7.03 1.72 14.11-2.59 15.83-9.62.04-.16.07-.33.11-.5l.01.01.02-.17c.072-.39.13-.78.17-1.17.83-5.71 1.74-7.93 8.04-6.39l-.02-.03c3.44.54 6.772-1.64 7.61-5.08.51-2.09-.02-4.19-1.25-5.77-.1-.13-.2-.25-.31-.38-2.537-3.08-5.94-9.03-1.02-13.57 1.92-1.91 3.36-4.35 4.05-7.16 1.97-8.12-3-16.3-11.12-18.28m-46.1 58.68c-.04.08-.1.14-.17.18 0 0-.17.09-.44.11-.14.02-.3.01-.467-.02-.17-.03-.34-.086-.51-.15-.08-.04-.166-.08-.245-.12-.08-.04-.152-.09-.223-.138-.14-.1-.26-.205-.357-.3-.045-.047-.09-.098-.127-.14l-.09-.11-.06-.09c-.11-.175-.06-.406.11-.518.13-.09.29-.08.41 0l.09.06c.02.02.06.04.09.05l.11.06c.17.1.39.21.63.29.06.01.12.04.18.05.06.01.12.02.17.04.11.02.22.05.31.07.09.02.17.04.23.06s.09.04.09.04l.04.02c.2.09.28.32.19.52m17.3-66.24c-.13.27-.41.43-.7.41 0 0-.21-.01-.56-.04l-.29-.03c-.1 0-.2.01-.31.01-.11 0-.22 0-.34-.01-.13 0-.26.01-.4.02s-.28.01-.42.03c-.15.02-.3.03-.45.05-.16.01-.31.04-.47.07-.16.03-.32.05-.48.09-.32.08-.66.15-.98.27-.33.09-.65.24-.98.37-.32.15-.63.29-.92.47l-.23.12-.21.14c-.14.09-.28.18-.41.27-.25.21-.51.38-.74.57-.11.093-.24.18-.35.262-.11.09-.21.18-.32.26-.22.16-.41.32-.58.454l-.26.19c-.08.06-.15.12-.22.17-.14.1-.25.18-.34.23-.08.053-.13.08-.13.08l-.09.05c-.38.2-.85.06-1.06-.32-.08-.14-.11-.3-.09-.46 0 0 0-.06.03-.16.02-.11.06-.26.11-.46.03-.095.06-.204.1-.32l.16-.354c.12-.25.262-.54.47-.81.094-.15.21-.29.32-.44.12-.14.25-.28.394-.42.27-.295.61-.54.95-.8.17-.12.36-.24.55-.36.09-.057.19-.12.28-.17l.3-.16c.2-.1.4-.22.61-.3.213-.09.426-.17.64-.26.215-.08.44-.14.655-.206.22-.07.44-.114.66-.16.44-.1.88-.14 1.3-.18.22-.02.43-.014.63-.02s.41 0 .6.02l.56.05c.19.017.36.06.52.087.17.03.32.06.48.1.16.04.3.08.44.12l.38.11c.11.04.19.08.28.11.33.14.51.23.51.23.36.17.52.606.35.97m1.25 1.31c-.36-.21-.48-.68-.27-1.04.21-.36.68-.48 1.04-.27l.055.03c.36.21.48.68.27 1.04-.14.24-.4.37-.66.37-.13 0-.27-.033-.39-.104l-.06-.03zm2.14 67.74c-.2.17-.44.25-.67.25-.28 0-.57-.12-.77-.344l-.04-.05c-.37-.42-.325-1.06.095-1.43.422-.37 1.062-.33 1.43.09l.045.05c.37.42.33 1.06-.09 1.43m13.9.67s-.02.04-.07.13c-.05.08-.12.2-.23.36-.05.07-.11.16-.18.24-.07.09-.15.17-.23.268-.17.187-.37.397-.63.578-.12.1-.25.19-.39.29-.14.09-.29.18-.45.26-.31.186-.67.314-1.03.456-.186.068-.38.12-.57.18-.1.03-.19.06-.29.084l-.3.065c-.2.04-.4.09-.61.12-.206.02-.41.05-.62.07-.205.027-.41.03-.62.04-.205.01-.41.01-.615-.006-.41-.01-.804-.05-1.19-.11-.19-.02-.38-.07-.56-.11-.18-.04-.36-.075-.53-.13l-.49-.15c-.154-.047-.3-.12-.44-.17l-.41-.17c-.13-.06-.25-.12-.37-.18l-.31-.17c-.09-.05-.16-.1-.23-.14-.276-.19-.43-.3-.43-.3-.3-.21-.37-.625-.16-.92.16-.225.44-.32.7-.26 0 0 .186.04.5.13.08.02.17.05.26.07.09.015.18.03.28.05.1.02.204.04.31.065l.364.05c.25.04.52.07.81.1.14.02.29.02.44.02.15 0 .3.02.46.02.15-.01.31-.01.47-.01.16 0 .32-.03.48-.035.16-.01.32-.02.48-.05.16-.03.32-.04.48-.07.32-.06.638-.12.946-.21l.23-.06.22-.08c.15-.05.3-.09.44-.14.28-.12.56-.21.814-.32.13-.05.26-.09.383-.14.12-.05.24-.1.354-.14.24-.08.45-.17.65-.24.1-.036.194-.07.284-.09.09-.04.17-.07.24-.09.15-.05.27-.09.36-.11.09-.03.14-.04.14-.04l.08-.013c.39-.07.76.18.83.57.03.15.01.3-.05.43m19.6-49.2l-.025.28c-.01.08-.03.15-.04.21l-.08.41c-.06.288-.34.47-.623.41-.22-.043-.38-.22-.417-.42 0 0-.03-.15-.07-.41-.02-.064-.02-.14-.04-.213-.02-.07-.03-.15-.05-.23-.02-.08-.04-.17-.05-.26l-.07-.29c-.05-.202-.11-.42-.17-.65-.06-.23-.15-.46-.23-.703-.098-.234-.18-.484-.29-.73-.098-.25-.23-.484-.34-.73-.13-.234-.25-.475-.39-.7-.13-.23-.28-.44-.42-.65-.15-.2-.28-.404-.426-.59l-.38-.54-.32-.472c-.09-.15-.17-.28-.24-.39-.13-.22-.2-.37-.2-.37l-.02-.04c-.125-.29.004-.62.29-.75.12-.058.25-.06.37-.03 0 0 .16.04.43.15.14.06.29.14.464.24.17.104.364.23.55.385.1.08.193.16.293.25.09.1.183.19.28.3.1.103.19.21.28.333l.27.364c.16.26.343.52.49.81.16.28.295.58.43.88.12.3.24.605.33.914.1.3.163.61.23.91.05.3.1.59.12.86.02.28.04.54.033.78 0 .24-.005.47-.025.67" clip-path="url(#a)"/>
  </g>
  <g stroke="null">
    <path fill="#FFF" d="M25.588 49.62c0 3.993 3.9 7.722 10.05 9.824-1.23 6.18-.22 11.163 3.145 13.104 3.46 1.996 8.615.615 13.507-3.662 4.77 4.104 9.59 5.72 12.953 3.772 3.456-2 4.507-7.32 3.246-13.695 6.4-2.118 9.98-5.297 9.98-9.344 0-3.91-3.91-7.28-9.98-9.37 1.36-6.64.21-11.5-3.3-13.52-3.38-1.95-8.26-.25-13.1 3.96-5.04-4.47-9.87-5.84-13.37-3.81-3.38 1.95-4.34 7.02-3.11 13.32-5.94 2.07-10.05 5.52-10.05 9.41z"/>
    <path fill="#1fc8db" d="M67.218 42.328a31.463 31.463 0 0 0-1.512-.476 28.58 28.58 0 0 0 .233-1.03c1.14-5.557.39-10.033-2.16-11.506-2.45-1.413-6.46.06-10.51 3.582a31.416 31.416 0 0 0-1.17 1.073 28.597 28.597 0 0 0-.78-.71c-4.24-3.76-8.5-5.35-11.05-3.87-2.45 1.42-3.18 5.63-2.14 10.89a31.37 31.37 0 0 0 .34 1.56c-.6.17-1.19.36-1.74.55-4.97 1.74-8.15 4.45-8.15 7.27 0 2.91 3.41 5.83 8.59 7.6a26.698 26.698 0 0 0 1.27.4 30.725 30.725 0 0 0-.37 1.68c-.99 5.18-.22 9.28 2.22 10.69 2.52 1.46 6.75-.04 10.87-3.64.32-.28.65-.58.98-.9a30.835 30.835 0 0 0 1.27 1.16c3.99 3.44 7.93 4.82 10.37 3.41 2.52-1.46 3.33-5.87 2.27-11.24-.09-.41-.18-.83-.29-1.25.3-.09.59-.18.87-.27 5.38-1.78 8.89-4.67 8.89-7.62 0-2.83-3.28-5.56-8.35-7.31z"/>
    <path fill="#FFF" d="M66.05 55.352c-.257.085-.52.167-.79.246-.594-1.88-1.396-3.882-2.378-5.95.937-2.018 1.708-3.993 2.286-5.863.48.14.947.286 1.397.44 4.346 1.497 6.997 3.71 6.997 5.413 0 1.816-2.863 4.173-7.512 5.714zm-1.93 3.822c.47 2.374.538 4.52.227 6.2-.28 1.507-.843 2.512-1.538 2.915-1.48.85-4.65-.26-8.06-3.2-.4-.34-.79-.7-1.19-1.08 1.32-1.45 2.64-3.13 3.93-5 2.27-.2 4.41-.53 6.36-.98.09.38.18.76.25 1.13zM44.614 68.14c-1.446.512-2.598.526-3.294.125-1.483-.855-2.1-4.153-1.26-8.578a28.79 28.79 0 0 1 .344-1.56c1.924.426 4.054.732 6.33.917 1.3 1.83 2.66 3.51 4.032 4.98a24.707 24.707 0 0 1-.895.825c-1.82 1.59-3.64 2.72-5.25 3.29zm-6.775-12.8c-2.29-.782-4.19-1.8-5.48-2.91-1.17-.997-1.76-1.988-1.76-2.792 0-1.71 2.55-3.89 6.8-5.374a28.95 28.95 0 0 1 1.61-.51c.59 1.913 1.36 3.912 2.29 5.933-.95 2.052-1.73 4.082-2.32 6.016a24.717 24.717 0 0 1-1.16-.362zm2.27-15.458c-.89-4.512-.3-7.915 1.18-8.768 1.57-.91 5.04.387 8.7 3.64.23.206.47.424.7.65-1.37 1.464-2.72 3.133-4 4.95-2.21.205-4.33.534-6.27.975a29.418 29.418 0 0 1-.33-1.45zm20.26 5.002a63.81 63.81 0 0 0-1.43-2.35c1.5.19 2.93.442 4.28.75-.41 1.297-.91 2.654-1.51 4.044a69.93 69.93 0 0 0-1.35-2.444zm-8.26-8.047c.92 1.003 1.85 2.122 2.76 3.337a59.084 59.084 0 0 0-5.55-.002c.91-1.203 1.84-2.32 2.78-3.335zm-8.32 8.06a59.29 59.29 0 0 0-1.33 2.43c-.59-1.386-1.09-2.748-1.49-4.064 1.34-.3 2.77-.545 4.26-.73a58.99 58.99 0 0 0-1.44 2.365zm1.48 11.99c-1.54-.17-2.99-.403-4.33-.695.41-1.34.92-2.73 1.52-4.146a58.928 58.928 0 0 0 1.33 2.43 59.297 59.297 0 0 0 1.47 2.412zm6.88 5.694c-.95-1.02-1.9-2.16-2.83-3.38.9.04 1.81.06 2.74.06.95 0 1.9-.02 2.83-.06-.92 1.25-1.84 2.38-2.76 3.39zm9.57-10.6c.62 1.43 1.15 2.82 1.57 4.13-1.36.31-2.84.56-4.38.75a70.162 70.162 0 0 0 1.44-2.39 63.738 63.738 0 0 0 1.36-2.49zm-3.1 1.49a65.785 65.785 0 0 1-2.26 3.64c-1.4.1-2.84.15-4.31.15-1.46 0-2.88-.04-4.25-.13a56.913 56.913 0 0 1-2.3-3.64 56.4 56.4 0 0 1-2-3.79 56.927 56.927 0 0 1 2-3.79 56.384 56.384 0 0 1 2.27-3.62c1.39-.1 2.83-.16 4.27-.16 1.45 0 2.89.06 4.28.16a60.427 60.427 0 0 1 2.26 3.62 65.772 65.772 0 0 1 2.02 3.77 60.448 60.448 0 0 1-2.02 3.8zm4.13-22.4c1.57.91 2.18 4.57 1.19 9.36a26.508 26.508 0 0 1-.21.94c-1.95-.45-4.07-.78-6.28-.99-1.29-1.84-2.63-3.51-3.97-4.95a29.5 29.5 0 0 1 1.08-.99c3.47-3.02 6.71-4.21 8.18-3.36z"/>
    <path fill="#1fc8db" d="M52.084 45.444c2.317 0 4.194 1.878 4.194 4.194 0 2.317-1.877 4.195-4.194 4.195-2.316 0-4.194-1.878-4.194-4.195 0-2.316 1.878-4.194 4.194-4.194"/>
  </g>
</svg>
